<svg xmlns="http://www.w3.org/2000/svg" xmlns:xlink="http://www.w3.org/1999/xlink" width="329" zoomAndPan="magnify" viewBox="0 0 246.75 235.499993" height="314" preserveAspectRatio="xMidYMid meet" version="1.0"><defs><g/><clipPath id="58f9d3807c"><path d="M 0.136719 0 L 246.363281 0 L 246.363281 235 L 0.136719 235 Z M 0.136719 0 " clip-rule="nonzero"/></clipPath><clipPath id="3964b48000"><path d="M 3.933594 0 L 243 0 L 243 234.5 L 3.933594 234.5 Z M 3.933594 0 " clip-rule="nonzero"/></clipPath><clipPath id="69e4da7752"><path d="M 30.875 0 L 215.535156 0 C 230.417969 0 242.480469 12.0625 242.480469 26.941406 L 242.480469 207.558594 C 242.480469 222.4375 230.417969 234.5 215.535156 234.5 L 30.875 234.5 C 15.996094 234.5 3.933594 222.4375 3.933594 207.558594 L 3.933594 26.941406 C 3.933594 12.0625 15.996094 0 30.875 0 Z M 30.875 0 " clip-rule="nonzero"/></clipPath></defs><g clip-path="url(#58f9d3807c)"><path fill="#ffffff" d="M 0.136719 0 L 246.363281 0 L 246.363281 235 L 0.136719 235 Z M 0.136719 0 " fill-opacity="1" fill-rule="nonzero"/></g><g clip-path="url(#3964b48000)"><g clip-path="url(#69e4da7752)"><path fill="#558ac9" d="M 3.933594 0 L 242.09375 0 L 242.09375 234.5 L 3.933594 234.5 Z M 3.933594 0 " fill-opacity="1" fill-rule="nonzero"/></g></g><g fill="#ffffff" fill-opacity="1"><g transform="translate(31.60653, 156.417501)"><g><path d="M 16.75 0.984375 C 14.46875 0.984375 12.710938 0.332031 11.484375 -0.96875 C 10.265625 -2.28125 9.65625 -4.078125 9.65625 -6.359375 L 9.65625 -79.8125 C 9.65625 -82.175781 10.304688 -83.988281 11.609375 -85.25 C 12.910156 -86.507812 14.703125 -87.140625 16.984375 -87.140625 C 19.023438 -87.140625 20.632812 -86.75 21.8125 -85.96875 C 23 -85.195312 24.082031 -83.878906 25.0625 -82.015625 L 55.25 -26.15625 L 51.328125 -26.15625 L 81.515625 -82.015625 C 82.492188 -83.878906 83.550781 -85.195312 84.6875 -85.96875 C 85.832031 -86.75 87.425781 -87.140625 89.46875 -87.140625 C 91.75 -87.140625 93.5 -86.507812 94.71875 -85.25 C 95.9375 -83.988281 96.546875 -82.175781 96.546875 -79.8125 L 96.546875 -6.359375 C 96.546875 -4.078125 95.957031 -2.28125 94.78125 -0.96875 C 93.601562 0.332031 91.832031 0.984375 89.46875 0.984375 C 87.1875 0.984375 85.429688 0.332031 84.203125 -0.96875 C 82.984375 -2.28125 82.375 -4.078125 82.375 -6.359375 L 82.375 -62.9375 L 85.0625 -62.9375 L 59.390625 -16.140625 C 58.578125 -14.753906 57.722656 -13.734375 56.828125 -13.078125 C 55.929688 -12.421875 54.710938 -12.09375 53.171875 -12.09375 C 51.617188 -12.09375 50.351562 -12.4375 49.375 -13.125 C 48.394531 -13.820312 47.539062 -14.828125 46.8125 -16.140625 L 20.90625 -63.0625 L 23.828125 -63.0625 L 23.828125 -6.359375 C 23.828125 -4.078125 23.234375 -2.28125 22.046875 -0.96875 C 20.867188 0.332031 19.101562 0.984375 16.75 0.984375 Z M 16.75 0.984375 "/></g></g></g><g fill="#ffffff" fill-opacity="1"><g transform="translate(137.679914, 156.417501)"><g><path d="M 39.109375 1.21875 C 35.523438 1.21875 31.941406 0.953125 28.359375 0.421875 C 24.773438 -0.0976562 21.390625 -0.910156 18.203125 -2.015625 C 15.023438 -3.117188 12.175781 -4.484375 9.65625 -6.109375 C 8.1875 -7.085938 7.164062 -8.269531 6.59375 -9.65625 C 6.03125 -11.039062 5.847656 -12.40625 6.046875 -13.75 C 6.253906 -15.09375 6.785156 -16.273438 7.640625 -17.296875 C 8.492188 -18.316406 9.570312 -18.945312 10.875 -19.1875 C 12.175781 -19.4375 13.601562 -19.070312 15.15625 -18.09375 C 18.738281 -15.96875 22.523438 -14.414062 26.515625 -13.4375 C 30.515625 -12.46875 34.710938 -11.984375 39.109375 -11.984375 C 45.546875 -11.984375 50.226562 -13.0625 53.15625 -15.21875 C 56.09375 -17.375 57.5625 -20.164062 57.5625 -23.59375 C 57.5625 -26.4375 56.519531 -28.671875 54.4375 -30.296875 C 52.363281 -31.929688 48.800781 -33.28125 43.75 -34.34375 L 30.3125 -37.15625 C 22.570312 -38.78125 16.804688 -41.523438 13.015625 -45.390625 C 9.222656 -49.265625 7.328125 -54.382812 7.328125 -60.75 C 7.328125 -64.738281 8.140625 -68.363281 9.765625 -71.625 C 11.398438 -74.882812 13.703125 -77.691406 16.671875 -80.046875 C 19.648438 -82.410156 23.195312 -84.222656 27.3125 -85.484375 C 31.425781 -86.753906 35.96875 -87.390625 40.9375 -87.390625 C 45.832031 -87.390625 50.476562 -86.773438 54.875 -85.546875 C 59.269531 -84.328125 63.222656 -82.535156 66.734375 -80.171875 C 68.035156 -79.273438 68.910156 -78.175781 69.359375 -76.875 C 69.804688 -75.570312 69.90625 -74.285156 69.65625 -73.015625 C 69.414062 -71.753906 68.847656 -70.675781 67.953125 -69.78125 C 67.054688 -68.882812 65.9375 -68.351562 64.59375 -68.1875 C 63.25 -68.03125 61.722656 -68.441406 60.015625 -69.421875 C 56.992188 -71.128906 53.9375 -72.347656 50.84375 -73.078125 C 47.75 -73.816406 44.410156 -74.1875 40.828125 -74.1875 C 37.078125 -74.1875 33.851562 -73.65625 31.15625 -72.59375 C 28.46875 -71.539062 26.410156 -70.054688 24.984375 -68.140625 C 23.566406 -66.222656 22.859375 -63.960938 22.859375 -61.359375 C 22.859375 -58.421875 23.832031 -56.078125 25.78125 -54.328125 C 27.738281 -52.578125 31.082031 -51.210938 35.8125 -50.234375 L 49.125 -47.421875 C 57.195312 -45.710938 63.207031 -43.023438 67.15625 -39.359375 C 71.113281 -35.691406 73.09375 -30.800781 73.09375 -24.6875 C 73.09375 -20.78125 72.296875 -17.234375 70.703125 -14.046875 C 69.117188 -10.867188 66.835938 -8.140625 63.859375 -5.859375 C 60.878906 -3.578125 57.3125 -1.828125 53.15625 -0.609375 C 49.007812 0.609375 44.328125 1.21875 39.109375 1.21875 Z M 39.109375 1.21875 "/></g></g></g></svg>