<svg xmlns="http://www.w3.org/2000/svg" xmlns:xlink="http://www.w3.org/1999/xlink" width="442" zoomAndPan="magnify" viewBox="0 0 331.5 80.249996" height="107" preserveAspectRatio="xMidYMid meet" version="1.0"><defs><filter x="0%" y="0%" width="100%" height="100%" id="21dadfff7f"><feColorMatrix values="0 0 0 0 1 0 0 0 0 1 0 0 0 0 1 0 0 0 1 0" color-interpolation-filters="sRGB"/></filter><g/><clipPath id="6a29c5a300"><path d="M 1.285156 19 L 52 19 L 52 66 L 1.285156 66 Z M 1.285156 19 " clip-rule="nonzero"/></clipPath><mask id="9e21994a16"><g filter="url(#21dadfff7f)"><rect x="-33.15" width="397.8" fill="#000000" y="-8.025" height="96.299995" fill-opacity="0.66"/></g></mask><clipPath id="694d8e78c8"><path d="M 0.285156 1.726562 L 49.328125 1.726562 L 49.328125 46.625 L 0.285156 46.625 Z M 0.285156 1.726562 " clip-rule="nonzero"/></clipPath><clipPath id="21397d817e"><rect x="0" width="51" y="0" height="47"/></clipPath></defs><g fill="#000000" fill-opacity="1"><g transform="translate(59.758231, 58.174312)"><g><path d="M 23.578125 -30.6875 L 30.203125 -30.6875 L 30.203125 -0.046875 L 26.15625 -0.046875 L 26.15625 -26.9375 L 22.9375 -18.359375 L 18.96875 -18.359375 Z M 2.171875 -30.6875 L 8.8125 -30.6875 L 13.421875 -18.359375 L 9.421875 -18.359375 L 6.1875 -26.9375 L 6.1875 -0.046875 L 2.171875 -0.046875 Z M 10.984375 -14.171875 L 15 -14.171875 L 16.171875 -11.375 L 17.390625 -14.171875 L 21.359375 -14.171875 L 18.265625 -6.890625 L 14.078125 -6.890625 Z M 10.984375 -14.171875 "/></g></g></g><g fill="#000000" fill-opacity="1"><g transform="translate(92.098175, 58.174312)"><g><path d="M 2.171875 -30.609375 L 6.625 -30.609375 L 15.125 -18 L 23.546875 -30.609375 L 27.984375 -30.609375 L 17.171875 -14.609375 L 12.984375 -14.609375 Z M 12.984375 -10.421875 L 17.171875 -10.421875 L 17.171875 0 L 12.984375 0 Z M 12.984375 -10.421875 "/></g></g></g><g fill="#000000" fill-opacity="1"><g transform="translate(122.258873, 58.174312)"><g/></g></g><g fill="#31308e" fill-opacity="1"><g transform="translate(130.987066, 58.174312)"><g><path d="M 2.171875 -30.640625 L 11.546875 -30.640625 C 14.984375 -30.640625 17.570312 -29.859375 19.3125 -28.296875 C 21.082031 -26.785156 21.96875 -24.515625 21.96875 -21.484375 C 21.96875 -18.492188 21.082031 -16.210938 19.3125 -14.640625 C 17.539062 -13.109375 14.953125 -12.34375 11.546875 -12.34375 L 2.171875 -12.34375 Z M 6.328125 -26.984375 L 6.328125 -16 L 11.546875 -16 C 13.441406 -16 14.925781 -16.507812 16 -17.53125 C 17.039062 -18.570312 17.5625 -19.890625 17.5625 -21.484375 C 17.5625 -23.171875 17.039062 -24.507812 16 -25.5 C 15.476562 -26.019531 14.84375 -26.394531 14.09375 -26.625 C 13.351562 -26.863281 12.503906 -26.984375 11.546875 -26.984375 Z M 2.171875 -8.15625 L 6.328125 -8.15625 L 6.328125 0 L 2.171875 0 Z M 2.171875 -8.15625 "/></g></g></g><g fill="#31308e" fill-opacity="1"><g transform="translate(155.089475, 58.174312)"><g><path d="M 2.171875 -30.640625 L 11.546875 -30.640625 C 14.984375 -30.640625 17.570312 -29.859375 19.3125 -28.296875 C 21.082031 -26.785156 21.96875 -24.515625 21.96875 -21.484375 C 21.96875 -18.492188 21.082031 -16.210938 19.3125 -14.640625 C 18.40625 -13.859375 17.226562 -13.25 15.78125 -12.8125 L 21.75 -0.046875 L 17.125 -0.046875 L 11.421875 -12.34375 L 2.171875 -12.34375 Z M 6.328125 -26.984375 L 6.328125 -16 L 11.546875 -16 C 13.441406 -16 14.925781 -16.507812 16 -17.53125 C 17.039062 -18.570312 17.5625 -19.890625 17.5625 -21.484375 C 17.5625 -23.171875 17.039062 -24.507812 16 -25.5 C 15.476562 -26.019531 14.84375 -26.394531 14.09375 -26.625 C 13.351562 -26.863281 12.503906 -26.984375 11.546875 -26.984375 Z M 2.171875 -8.15625 L 6.328125 -8.15625 L 6.328125 0 L 2.171875 0 Z M 2.171875 -8.15625 "/></g></g></g><g fill="#31308e" fill-opacity="1"><g transform="translate(179.191884, 58.174312)"><g><path d="M 19.265625 -30.46875 C 22.984375 -30.125 26.019531 -28.757812 28.375 -26.375 C 31.132812 -23.644531 32.515625 -19.9375 32.515625 -15.25 C 32.515625 -10.601562 31.132812 -6.898438 28.375 -4.140625 C 26.019531 -1.785156 22.984375 -0.4375 19.265625 -0.09375 L 19.265625 -3.84375 C 22.054688 -4.269531 24.148438 -5.300781 25.546875 -6.9375 C 27.429688 -9.082031 28.375 -11.851562 28.375 -15.25 C 28.375 -18.800781 27.429688 -21.625 25.546875 -23.71875 C 24.085938 -25.40625 21.992188 -26.4375 19.265625 -26.8125 Z M 15.078125 -30.421875 L 15.078125 -26.765625 C 12.609375 -26.328125 10.660156 -25.3125 9.234375 -23.71875 C 7.347656 -21.5625 6.40625 -18.738281 6.40625 -15.25 C 6.40625 -11.914062 7.347656 -9.144531 9.234375 -6.9375 C 10.609375 -5.394531 12.554688 -4.375 15.078125 -3.875 L 15.078125 -0.125 C 11.566406 -0.507812 8.648438 -1.847656 6.328125 -4.140625 C 3.554688 -6.960938 2.171875 -10.664062 2.171875 -15.25 C 2.171875 -19.90625 3.554688 -23.613281 6.328125 -26.375 C 8.648438 -28.695312 11.566406 -30.046875 15.078125 -30.421875 Z M 15.078125 -30.421875 "/></g></g></g><g fill="#31308e" fill-opacity="1"><g transform="translate(213.885407, 58.174312)"><g><path d="M 12.953125 -14 L 17.09375 -14 L 17.09375 -8.28125 C 17.03125 -5.8125 16.359375 -3.804688 15.078125 -2.265625 C 13.859375 -0.785156 12 -0.046875 9.5 -0.046875 C 8.6875 -0.046875 7.671875 -0.0351562 6.453125 -0.015625 C 5.234375 -0.00390625 3.804688 0 2.171875 0 L 2.21875 -3.875 L 7.328125 -3.875 C 8.367188 -3.820312 9.269531 -3.925781 10.03125 -4.1875 C 10.8125 -4.445312 11.40625 -4.820312 11.8125 -5.3125 C 12.21875 -5.8125 12.507812 -6.289062 12.6875 -6.75 C 12.800781 -7.019531 12.875 -7.273438 12.90625 -7.515625 C 12.9375 -7.765625 12.953125 -8.019531 12.953125 -8.28125 Z M 12.953125 -30.515625 L 17.09375 -30.515625 L 17.09375 -18.171875 L 12.953125 -18.171875 Z M 12.953125 -30.515625 "/></g></g></g><g fill="#31308e" fill-opacity="1"><g transform="translate(233.149894, 58.174312)"><g><path d="M 2.171875 -30.640625 L 21.53125 -30.640625 L 21.53125 -27.15625 L 6.328125 -27.15625 L 6.328125 -18.09375 L 21.53125 -18.09375 L 21.53125 -14.5625 L 6.328125 -14.609375 L 6.328125 -7.671875 L 2.171875 -7.671875 Z M 2.171875 -3.484375 L 21.53125 -3.484375 L 21.53125 0 L 2.171875 0 Z M 2.171875 -3.484375 "/></g></g></g><g fill="#31308e" fill-opacity="1"><g transform="translate(256.860037, 58.174312)"><g><path d="M 2.171875 -13.953125 L 6.578125 -13.953125 C 6.785156 -11.359375 7.832031 -9.019531 9.71875 -6.9375 C 10.675781 -5.882812 11.753906 -5.128906 12.953125 -4.671875 C 14.171875 -4.234375 15.648438 -4.015625 17.390625 -4.015625 L 26.890625 -4.046875 L 26.9375 -0.046875 L 17.09375 0 C 12.5 0 8.847656 -1.347656 6.140625 -4.046875 C 3.765625 -6.578125 2.441406 -9.878906 2.171875 -13.953125 Z M 17.09375 -30.609375 L 26.9375 -30.609375 L 26.890625 -26.546875 L 17.484375 -26.640625 C 16.671875 -26.640625 15.921875 -26.578125 15.234375 -26.453125 C 14.554688 -26.335938 13.925781 -26.148438 13.34375 -25.890625 C 12.789062 -25.660156 12.238281 -25.378906 11.6875 -25.046875 C 11.132812 -24.710938 10.59375 -24.296875 10.0625 -23.796875 C 8.351562 -21.910156 7.25 -19.90625 6.75 -17.78125 L 2.265625 -17.78125 C 2.703125 -21.382812 3.992188 -24.265625 6.140625 -26.421875 C 8.898438 -29.210938 12.550781 -30.609375 17.09375 -30.609375 Z M 17.09375 -30.609375 "/></g></g></g><g fill="#31308e" fill-opacity="1"><g transform="translate(285.931119, 58.174312)"><g><path d="M 13.03125 -22.890625 L 17.21875 -22.890625 L 17.21875 0 L 13.03125 0 Z M 2.171875 -30.609375 L 28.078125 -30.609375 L 28.078125 -27.109375 L 17.21875 -27.109375 L 17.21875 -27.078125 L 13.03125 -27.078125 L 13.03125 -27.109375 L 2.171875 -27.109375 Z M 2.171875 -30.609375 "/></g></g></g><g clip-path="url(#6a29c5a300)"><g mask="url(#9e21994a16)"><g transform="matrix(1, 0, 0, 1, 1, 19)"><g clip-path="url(#21397d817e)"><g clip-path="url(#694d8e78c8)"><path fill="#343489" d="M 35.089844 1.8125 C 34.261719 1.785156 33.390625 1.929688 32.523438 2.214844 C 30.78125 2.777344 28.957031 3.875 27.085938 5.398438 C 26.355469 5.996094 25.613281 6.675781 24.871094 7.402344 C 24.144531 6.695312 23.421875 6.03125 22.703125 5.445312 C 20.832031 3.925781 19.015625 2.828125 17.277344 2.265625 C 15.542969 1.703125 13.816406 1.683594 12.394531 2.503906 C 10.976562 3.324219 10.128906 4.828125 9.75 6.613281 C 9.367188 8.398438 9.40625 10.523438 9.789062 12.902344 C 9.921875 13.730469 10.113281 14.597656 10.328125 15.480469 C 9.519531 15.726562 8.730469 15.984375 8 16.269531 C 5.796875 17.128906 3.976562 18.160156 2.648438 19.382812 C 1.320312 20.609375 0.464844 22.097656 0.464844 23.730469 C 0.464844 25.359375 1.320312 26.847656 2.648438 28.070312 C 3.976562 29.296875 5.796875 30.328125 8 31.1875 C 8.78125 31.492188 9.628906 31.769531 10.5 32.027344 C 10.1875 33.199219 9.933594 34.339844 9.757812 35.417969 C 9.375 37.796875 9.335938 39.925781 9.71875 41.714844 C 10.097656 43.503906 10.949219 45.015625 12.375 45.839844 C 13.800781 46.660156 15.535156 46.640625 17.273438 46.078125 C 19.015625 45.511719 20.835938 44.414062 22.707031 42.894531 C 23.433594 42.300781 24.167969 41.628906 24.90625 40.910156 C 25.644531 41.632812 26.382812 42.308594 27.113281 42.902344 C 28.980469 44.425781 30.804688 45.523438 32.539062 46.085938 C 34.273438 46.648438 36 46.664062 37.417969 45.847656 C 38.839844 45.027344 39.6875 43.523438 40.066406 41.738281 C 40.449219 39.953125 40.40625 37.828125 40.023438 35.449219 C 39.851562 34.367188 39.59375 33.226562 39.28125 32.050781 C 40.183594 31.785156 41.054688 31.503906 41.859375 31.1875 C 44.0625 30.328125 45.882812 29.296875 47.210938 28.070312 C 48.539062 26.847656 49.394531 25.359375 49.394531 23.730469 C 49.394531 22.097656 48.539062 20.609375 47.210938 19.382812 C 45.882812 18.160156 44.0625 17.128906 41.859375 16.269531 C 41.117188 15.980469 40.316406 15.71875 39.496094 15.46875 C 39.710938 14.582031 39.90625 13.707031 40.039062 12.875 C 40.421875 10.492188 40.460938 8.367188 40.078125 6.578125 C 39.699219 4.789062 38.847656 3.277344 37.421875 2.453125 C 36.707031 2.042969 35.917969 1.84375 35.089844 1.8125 Z M 34.992188 3.976562 C 35.511719 3.992188 35.957031 4.117188 36.335938 4.335938 C 37.09375 4.773438 37.65625 5.628906 37.957031 7.03125 C 38.253906 8.433594 38.246094 10.332031 37.890625 12.53125 C 37.769531 13.285156 37.59375 14.085938 37.394531 14.902344 C 35.21875 14.378906 32.835938 13.992188 30.296875 13.761719 C 29.023438 11.996094 27.710938 10.386719 26.390625 8.957031 C 27.089844 8.277344 27.78125 7.636719 28.460938 7.085938 C 30.1875 5.679688 31.824219 4.722656 33.191406 4.28125 C 33.875 4.058594 34.472656 3.964844 34.992188 3.976562 Z M 14.8125 3.984375 C 15.335938 3.96875 15.9375 4.066406 16.621094 4.289062 C 17.992188 4.730469 19.628906 5.6875 21.359375 7.09375 C 22.023438 7.636719 22.703125 8.257812 23.386719 8.925781 C 22.054688 10.363281 20.734375 11.988281 19.453125 13.773438 C 16.921875 14.003906 14.546875 14.398438 12.382812 14.921875 C 12.183594 14.109375 12.011719 13.3125 11.890625 12.5625 C 11.535156 10.363281 11.527344 8.460938 11.828125 7.054688 C 12.128906 5.644531 12.695312 4.789062 13.460938 4.347656 C 13.84375 4.125 14.289062 4 14.8125 3.984375 Z M 24.90625 10.488281 C 25.769531 11.429688 26.636719 12.464844 27.496094 13.574219 C 26.652344 13.539062 25.796875 13.515625 24.929688 13.515625 C 24.042969 13.515625 23.171875 13.539062 22.3125 13.574219 C 23.171875 12.464844 24.039062 11.433594 24.90625 10.488281 Z M 24.929688 15.664062 C 26.375 15.664062 27.785156 15.722656 29.15625 15.824219 C 30.097656 17.179688 31.019531 18.617188 31.898438 20.136719 C 32.671875 21.472656 33.371094 22.808594 34.003906 24.128906 C 33.363281 25.460938 32.652344 26.816406 31.871094 28.171875 C 31.179688 29.363281 30.460938 30.496094 29.730469 31.589844 C 28.183594 31.71875 26.578125 31.789062 24.929688 31.789062 C 23.242188 31.789062 21.601562 31.714844 20.019531 31.578125 C 19.300781 30.503906 18.59375 29.382812 17.914062 28.210938 C 17.132812 26.859375 16.425781 25.511719 15.785156 24.175781 C 16.429688 22.835938 17.140625 21.480469 17.925781 20.117188 C 18.796875 18.605469 19.71875 17.175781 20.65625 15.828125 C 22.042969 15.726562 23.46875 15.664062 24.929688 15.664062 Z M 31.894531 16.089844 C 33.648438 16.308594 35.292969 16.613281 36.824219 16.976562 C 36.367188 18.46875 35.808594 20.023438 35.132812 21.628906 C 34.691406 20.78125 34.234375 19.929688 33.742188 19.074219 C 33.144531 18.039062 32.523438 17.054688 31.894531 16.089844 Z M 17.851562 16.105469 C 17.238281 17.050781 16.628906 18.019531 16.046875 19.03125 C 15.546875 19.898438 15.082031 20.761719 14.636719 21.621094 C 13.960938 20.023438 13.40625 18.476562 12.953125 16.996094 C 14.476562 16.628906 16.113281 16.328125 17.851562 16.105469 Z M 38.925781 17.542969 C 39.679688 17.769531 40.410156 18.007812 41.078125 18.269531 C 43.109375 19.0625 44.714844 20 45.753906 20.960938 C 46.796875 21.921875 47.25 22.839844 47.25 23.730469 C 47.25 24.617188 46.796875 25.535156 45.753906 26.496094 C 44.714844 27.457031 43.109375 28.394531 41.078125 29.1875 C 40.335938 29.476562 39.519531 29.742188 38.671875 29.988281 C 38.066406 28.121094 37.296875 26.167969 36.378906 24.175781 C 37.433594 21.890625 38.285156 19.660156 38.925781 17.542969 Z M 10.898438 17.550781 C 11.53125 19.648438 12.371094 21.859375 13.414062 24.121094 C 12.488281 26.125 11.714844 28.085938 11.105469 29.96875 C 10.289062 29.726562 9.5 29.46875 8.78125 29.1875 C 6.75 28.394531 5.144531 27.457031 4.105469 26.496094 C 3.0625 25.535156 2.609375 24.617188 2.609375 23.730469 C 2.609375 22.839844 3.0625 21.921875 4.105469 20.960938 C 5.144531 20 6.75 19.0625 8.78125 18.269531 C 9.441406 18.011719 10.15625 17.777344 10.898438 17.550781 Z M 24.929688 18.84375 C 22.007812 18.84375 19.613281 21.238281 19.613281 24.160156 C 19.613281 27.085938 22.007812 29.476562 24.929688 29.476562 C 27.851562 29.476562 30.246094 27.085938 30.246094 24.160156 C 30.246094 21.238281 27.851562 18.84375 24.929688 18.84375 Z M 24.929688 20.96875 C 26.703125 20.96875 28.121094 22.386719 28.121094 24.160156 C 28.121094 25.933594 26.703125 27.351562 24.929688 27.351562 C 23.15625 27.351562 21.738281 25.933594 21.738281 24.160156 C 21.738281 22.386719 23.15625 20.96875 24.929688 20.96875 Z M 35.15625 26.671875 C 35.714844 27.992188 36.199219 29.285156 36.609375 30.53125 C 35.328125 30.828125 33.96875 31.078125 32.535156 31.273438 C 32.945312 30.617188 33.355469 29.945312 33.75 29.257812 C 34.25 28.394531 34.714844 27.53125 35.15625 26.671875 Z M 14.660156 26.675781 C 15.105469 27.539062 15.574219 28.40625 16.074219 29.273438 C 16.46875 29.953125 16.867188 30.617188 17.273438 31.265625 C 15.847656 31.070312 14.488281 30.820312 13.214844 30.523438 C 13.621094 29.28125 14.105469 27.992188 14.660156 26.675781 Z M 12.601562 32.585938 C 14.527344 33.042969 16.613281 33.390625 18.824219 33.621094 C 20.300781 35.757812 21.839844 37.675781 23.386719 39.351562 C 22.695312 40.027344 22.007812 40.660156 21.335938 41.207031 C 19.609375 42.613281 17.96875 43.566406 16.605469 44.011719 C 15.238281 44.453125 14.21875 44.394531 13.460938 43.957031 C 12.699219 43.519531 12.140625 42.664062 11.84375 41.261719 C 11.542969 39.855469 11.550781 37.960938 11.902344 35.761719 C 12.066406 34.761719 12.304688 33.695312 12.601562 32.585938 Z M 37.222656 32.59375 C 37.523438 33.710938 37.761719 34.78125 37.925781 35.785156 C 38.277344 37.988281 38.285156 39.886719 37.988281 41.292969 C 37.6875 42.703125 37.121094 43.5625 36.355469 44.003906 C 35.589844 44.445312 34.5625 44.507812 33.191406 44.0625 C 31.824219 43.617188 30.183594 42.660156 28.453125 41.253906 C 27.777344 40.703125 27.085938 40.066406 26.390625 39.386719 C 27.949219 37.703125 29.496094 35.773438 30.984375 33.625 C 33.199219 33.398438 35.292969 33.050781 37.222656 32.59375 Z M 21.597656 33.839844 C 22.691406 33.898438 23.796875 33.9375 24.929688 33.9375 C 26.027344 33.9375 27.097656 33.898438 28.152344 33.84375 C 27.074219 35.300781 25.972656 36.628906 24.875 37.820312 C 23.777344 36.625 22.679688 35.296875 21.597656 33.839844 Z M 21.597656 33.839844 " fill-opacity="1" fill-rule="nonzero"/></g></g></g></g></g></svg>