<svg xmlns="http://www.w3.org/2000/svg" xmlns:xlink="http://www.w3.org/1999/xlink" width="552" zoomAndPan="magnify" viewBox="0 0 414 312.749988" height="417" preserveAspectRatio="xMidYMid meet" version="1.0"><defs><clipPath id="d03ec8fce7"><path d="M 0.164062 309 L 413.085938 309 L 413.085938 311 L 0.164062 311 Z M 0.164062 309 " clip-rule="nonzero"/></clipPath></defs><path fill="#61dafb" d="M 206.640625 224.257812 C 161.003906 224.257812 118.078125 217.460938 85.773438 205.117188 C 53.035156 192.609375 35.003906 175.804688 35.003906 157.800781 C 35.003906 139.796875 53.035156 122.996094 85.773438 110.488281 C 118.078125 98.140625 161.003906 91.34375 206.640625 91.34375 C 252.273438 91.34375 295.199219 98.140625 327.507812 110.488281 C 360.246094 122.996094 378.273438 139.800781 378.273438 157.800781 C 378.273438 175.804688 360.246094 192.609375 327.507812 205.117188 C 295.199219 217.460938 252.273438 224.257812 206.640625 224.257812 Z M 206.640625 94.179688 C 161.339844 94.179688 118.773438 100.910156 86.78125 113.136719 C 55.21875 125.195312 37.839844 141.058594 37.839844 157.800781 C 37.839844 174.542969 55.21875 190.40625 86.78125 202.46875 C 118.773438 214.691406 161.339844 221.425781 206.640625 221.425781 C 251.9375 221.425781 294.503906 214.691406 326.496094 202.46875 C 358.058594 190.40625 375.441406 174.546875 375.441406 157.800781 C 375.441406 141.058594 358.058594 125.195312 326.496094 113.136719 C 294.503906 100.910156 251.9375 94.179688 206.640625 94.179688 Z M 206.640625 94.179688 " fill-opacity="1" fill-rule="nonzero"/><path fill="#61dafb" d="M 277.554688 310.328125 C 263.371094 310.328125 245.691406 302.125 226.128906 286.210938 C 199.292969 264.382812 171.945312 230.582031 149.128906 191.03125 C 126.308594 151.480469 110.730469 110.878906 105.261719 76.707031 C 99.714844 42.078125 105.242188 18.050781 120.824219 9.050781 C 136.402344 0.0507812 159.957031 7.273438 187.152344 29.390625 C 213.988281 51.21875 241.332031 85.023438 264.152344 124.574219 C 286.96875 164.121094 302.546875 204.722656 308.019531 238.898438 C 313.5625 273.523438 308.035156 297.550781 292.457031 306.550781 C 288.085938 309.078125 283.085938 310.328125 277.554688 310.328125 Z M 135.800781 8.089844 C 130.746094 8.089844 126.195312 9.21875 122.238281 11.507812 C 107.75 19.878906 102.710938 42.875 108.058594 76.257812 C 113.476562 110.097656 128.933594 150.355469 151.582031 189.613281 C 174.230469 228.871094 201.339844 262.394531 227.914062 284.011719 C 254.132812 305.335938 276.550781 312.46875 291.039062 304.097656 C 305.53125 295.726562 310.566406 272.730469 305.222656 239.34375 C 299.804688 205.503906 284.347656 165.25 261.699219 125.988281 C 239.046875 86.730469 211.941406 53.207031 185.363281 31.59375 C 166.308594 16.09375 149.257812 8.089844 135.800781 8.089844 Z M 135.800781 8.089844 " fill-opacity="1" fill-rule="nonzero"/><path fill="#61dafb" d="M 135.726562 310.328125 C 130.191406 310.328125 125.195312 309.078125 120.824219 306.550781 C 105.242188 297.550781 99.714844 273.523438 105.261719 238.898438 C 110.730469 204.722656 126.308594 164.121094 149.128906 124.574219 C 171.945312 85.023438 199.292969 51.21875 226.128906 29.390625 C 253.320312 7.273438 276.878906 0.0507812 292.457031 9.050781 C 308.035156 18.050781 313.5625 42.078125 308.019531 76.707031 C 302.546875 110.878906 286.96875 151.480469 264.152344 191.03125 C 241.332031 230.582031 213.988281 264.382812 187.152344 286.210938 C 167.589844 302.121094 149.90625 310.328125 135.726562 310.328125 Z M 277.476562 8.089844 C 264.019531 8.089844 246.972656 16.089844 227.914062 31.59375 C 201.339844 53.207031 174.230469 86.730469 151.582031 125.988281 C 128.933594 165.25 113.476562 205.503906 108.058594 239.34375 C 102.710938 272.730469 107.75 295.726562 122.238281 304.097656 C 126.195312 306.382812 130.746094 307.511719 135.800781 307.511719 C 149.257812 307.515625 166.304688 299.511719 185.363281 284.011719 C 211.941406 262.394531 239.046875 228.871094 261.699219 189.613281 C 284.347656 150.355469 299.804688 110.097656 305.222656 76.257812 C 310.566406 42.875 305.53125 19.878906 291.039062 11.507812 C 287.082031 9.21875 282.53125 8.089844 277.476562 8.089844 Z M 277.476562 8.089844 " fill-opacity="1" fill-rule="nonzero"/><path fill="#61dafb" d="M 238.363281 157.800781 C 238.363281 158.839844 238.3125 159.878906 238.210938 160.914062 C 238.109375 161.949219 237.957031 162.976562 237.753906 163.996094 C 237.550781 165.015625 237.296875 166.023438 236.996094 167.015625 C 236.695312 168.011719 236.34375 168.988281 235.945312 169.949219 C 235.550781 170.910156 235.105469 171.851562 234.617188 172.765625 C 234.125 173.683594 233.59375 174.574219 233.015625 175.4375 C 232.4375 176.304688 231.820312 177.136719 231.160156 177.941406 C 230.503906 178.746094 229.804688 179.515625 229.070312 180.25 C 228.335938 180.984375 227.566406 181.683594 226.765625 182.339844 C 225.960938 183 225.128906 183.621094 224.261719 184.199219 C 223.398438 184.773438 222.507812 185.308594 221.59375 185.800781 C 220.675781 186.289062 219.738281 186.734375 218.777344 187.132812 C 217.820312 187.527344 216.84375 187.878906 215.847656 188.179688 C 214.855469 188.484375 213.847656 188.734375 212.828125 188.9375 C 211.808594 189.140625 210.78125 189.292969 209.75 189.394531 C 208.714844 189.496094 207.679688 189.546875 206.640625 189.546875 C 205.601562 189.546875 204.5625 189.496094 203.53125 189.394531 C 202.496094 189.292969 201.46875 189.140625 200.449219 188.9375 C 199.433594 188.734375 198.425781 188.484375 197.429688 188.179688 C 196.4375 187.878906 195.460938 187.527344 194.5 187.132812 C 193.539062 186.734375 192.601562 186.289062 191.683594 185.800781 C 190.769531 185.308594 189.878906 184.773438 189.015625 184.199219 C 188.152344 183.621094 187.316406 183 186.515625 182.339844 C 185.710938 181.683594 184.941406 180.984375 184.207031 180.25 C 183.472656 179.515625 182.777344 178.746094 182.117188 177.941406 C 181.457031 177.136719 180.839844 176.304688 180.261719 175.4375 C 179.6875 174.574219 179.152344 173.683594 178.664062 172.765625 C 178.171875 171.851562 177.730469 170.910156 177.332031 169.949219 C 176.933594 168.988281 176.585938 168.011719 176.28125 167.015625 C 175.980469 166.023438 175.730469 165.015625 175.527344 163.996094 C 175.324219 162.976562 175.171875 161.949219 175.070312 160.914062 C 174.96875 159.878906 174.917969 158.839844 174.917969 157.800781 C 174.917969 156.761719 174.96875 155.726562 175.070312 154.691406 C 175.171875 153.65625 175.324219 152.628906 175.527344 151.609375 C 175.730469 150.589844 175.980469 149.582031 176.28125 148.585938 C 176.585938 147.589844 176.933594 146.613281 177.332031 145.652344 C 177.730469 144.691406 178.171875 143.753906 178.664062 142.835938 C 179.152344 141.917969 179.6875 141.027344 180.261719 140.164062 C 180.839844 139.300781 181.457031 138.464844 182.117188 137.660156 C 182.777344 136.859375 183.472656 136.089844 184.207031 135.355469 C 184.941406 134.617188 185.710938 133.921875 186.515625 133.261719 C 187.316406 132.601562 188.152344 131.984375 189.015625 131.40625 C 189.878906 130.828125 190.769531 130.292969 191.683594 129.804688 C 192.601562 129.3125 193.539062 128.871094 194.5 128.472656 C 195.460938 128.074219 196.4375 127.722656 197.429688 127.421875 C 198.425781 127.121094 199.433594 126.867188 200.449219 126.664062 C 201.46875 126.460938 202.496094 126.308594 203.53125 126.207031 C 204.5625 126.105469 205.601562 126.054688 206.640625 126.054688 C 207.679688 126.054688 208.714844 126.105469 209.75 126.207031 C 210.78125 126.308594 211.808594 126.460938 212.828125 126.664062 C 213.847656 126.867188 214.855469 127.121094 215.847656 127.421875 C 216.84375 127.722656 217.820312 128.074219 218.777344 128.472656 C 219.738281 128.871094 220.675781 129.3125 221.59375 129.804688 C 222.507812 130.292969 223.398438 130.828125 224.261719 131.40625 C 225.128906 131.984375 225.960938 132.601562 226.765625 133.261719 C 227.566406 133.921875 228.335938 134.617188 229.070312 135.355469 C 229.804688 136.089844 230.503906 136.859375 231.160156 137.660156 C 231.820312 138.464844 232.4375 139.300781 233.015625 140.164062 C 233.59375 141.027344 234.125 141.917969 234.617188 142.835938 C 235.105469 143.753906 235.550781 144.691406 235.945312 145.652344 C 236.34375 146.613281 236.695312 147.589844 236.996094 148.585938 C 237.296875 149.582031 237.550781 150.589844 237.753906 151.609375 C 237.957031 152.628906 238.109375 153.65625 238.210938 154.691406 C 238.3125 155.726562 238.363281 156.761719 238.363281 157.800781 Z M 238.363281 157.800781 " fill-opacity="1" fill-rule="nonzero"/><path fill="#f2f2f2" d="M 400.183594 245.40625 C 399.585938 244.398438 397 245.476562 396.523438 244.5625 C 396.050781 243.648438 398.453125 242.257812 399.824219 239.082031 C 400.074219 238.511719 401.632812 234.902344 400.480469 233.789062 C 398.289062 231.675781 388.269531 240.386719 384.761719 237.539062 C 383.992188 236.910156 383.453125 235.664062 381.125 233.632812 C 380.199219 232.828125 379.636719 232.464844 379.097656 232.597656 C 378.328125 232.792969 378.265625 233.820312 377.441406 235.847656 C 376.203125 238.886719 375.472656 238.703125 374.75 241.128906 C 374.214844 242.929688 374.335938 243.972656 373.707031 244.179688 C 372.816406 244.464844 371.996094 242.558594 370.867188 242.730469 C 369.714844 242.902344 369.019531 245.125 368.796875 246.789062 C 368.382812 249.914062 369.53125 251.972656 370.164062 254.140625 C 370.855469 256.496094 371.265625 260.078125 369.671875 265.148438 L 353.894531 309.636719 C 357.375 300.507812 367.460938 275.480469 371.699219 266.183594 C 372.925781 263.496094 374.273438 260.773438 377.050781 259.699219 C 379.71875 258.664062 383.386719 259.28125 388.0625 258.15625 C 388.609375 258.023438 390.125 257.636719 390.316406 256.746094 C 390.472656 256.007812 389.582031 255.597656 389.71875 254.90625 C 389.902344 253.980469 391.65625 253.96875 393.808594 252.898438 C 395.328125 252.144531 396.273438 251.25 397.085938 250.480469 C 397.332031 250.246094 400.980469 246.75 400.183594 245.40625 Z M 400.183594 245.40625 " fill-opacity="1" fill-rule="nonzero"/><path fill="#f2f2f2" d="M 338.105469 268.828125 C 337.441406 268.828125 337.222656 270.410156 336.636719 270.382812 C 336.050781 270.351562 336.0625 268.769531 334.902344 267.179688 C 334.695312 266.890625 333.375 265.082031 332.492188 265.328125 C 330.828125 265.796875 332.207031 273.230469 329.796875 274.132812 C 329.269531 274.328125 328.5 274.230469 326.835938 274.792969 C 326.171875 275.011719 325.832031 275.183594 325.742188 275.488281 C 325.613281 275.921875 326.101562 276.25 326.859375 277.238281 C 327.992188 278.722656 327.691406 279.03125 328.671875 280.085938 C 329.398438 280.867188 329.949219 281.109375 329.867188 281.476562 C 329.75 281.996094 328.578125 281.851562 328.335938 282.453125 C 328.089844 283.070312 328.976562 284.054688 329.730469 284.640625 C 331.140625 285.746094 332.484375 285.777344 333.730469 286.089844 C 335.082031 286.429688 336.957031 287.261719 338.984375 289.507812 L 356.25 310.09375 C 352.777344 305.75 343.417969 293.574219 340.078125 288.8125 C 339.113281 287.4375 338.167969 285.988281 338.441406 284.3125 C 338.707031 282.703125 340.066406 281.082031 340.863281 278.457031 C 340.957031 278.152344 341.203125 277.296875 340.820312 276.945312 C 340.503906 276.65625 340.046875 276.976562 339.746094 276.707031 C 339.34375 276.351562 339.847656 275.488281 339.941406 274.121094 C 340.011719 273.15625 339.84375 272.433594 339.703125 271.8125 C 339.660156 271.625 338.996094 268.824219 338.105469 268.828125 Z M 338.105469 268.828125 " fill-opacity="1" fill-rule="nonzero"/><path fill="#f2f2f2" d="M 351.421875 271.816406 L 351.019531 268.226562 L 351.203125 267.953125 C 352.054688 266.695312 352.488281 265.464844 352.492188 264.296875 C 352.492188 264.113281 352.484375 263.925781 352.476562 263.738281 C 352.441406 262.988281 352.398438 262.054688 352.882812 260.96875 C 353.15625 260.363281 353.921875 258.964844 355.070312 259.136719 C 355.378906 259.179688 355.613281 259.324219 355.789062 259.488281 C 355.816406 259.445312 355.84375 259.40625 355.871094 259.359375 C 356.230469 258.8125 356.511719 258.578125 356.785156 258.355469 C 356.996094 258.179688 357.210938 258.003906 357.550781 257.578125 C 357.703125 257.394531 357.816406 257.230469 357.914062 257.09375 C 358.210938 256.679688 358.601562 256.183594 359.285156 256.191406 C 360.015625 256.226562 360.398438 256.832031 360.652344 257.234375 C 361.105469 257.949219 361.3125 258.464844 361.449219 258.804688 C 361.496094 258.929688 361.554688 259.070312 361.582031 259.113281 C 361.820312 259.460938 363.734375 259.136719 364.457031 259.019531 C 366.078125 258.75 367.480469 258.515625 368.058594 259.539062 C 368.472656 260.269531 368.164062 261.238281 367.117188 262.492188 C 366.789062 262.882812 366.441406 263.179688 366.132812 263.410156 C 366.390625 263.5625 366.617188 263.796875 366.710938 264.164062 C 366.929688 265.035156 366.183594 265.910156 364.488281 266.761719 C 364.070312 266.976562 363.503906 267.257812 362.710938 267.398438 C 362.335938 267.460938 362 267.476562 361.710938 267.484375 C 361.707031 267.652344 361.667969 267.832031 361.566406 268.019531 C 361.269531 268.5625 360.652344 268.824219 359.71875 268.761719 C 358.691406 268.707031 357.847656 268.511719 357.101562 268.339844 C 356.449219 268.191406 355.890625 268.066406 355.449219 268.09375 C 354.632812 268.160156 354.003906 268.8125 353.265625 269.664062 Z M 351.421875 271.816406 " fill-opacity="1" fill-rule="nonzero"/><path fill="#f2f2f2" d="M 353.289062 250.429688 L 349.917969 251.730469 L 349.609375 251.621094 C 348.175781 251.117188 346.875 251.011719 345.746094 251.300781 C 345.566406 251.347656 345.390625 251.402344 345.210938 251.460938 C 344.492188 251.683594 343.605469 251.960938 342.433594 251.765625 C 341.777344 251.65625 340.230469 251.273438 340.105469 250.117188 C 340.070312 249.804688 340.148438 249.542969 340.261719 249.328125 C 340.214844 249.3125 340.167969 249.296875 340.117188 249.28125 C 339.5 249.074219 339.199219 248.859375 338.914062 248.652344 C 338.691406 248.492188 338.464844 248.328125 337.96875 248.109375 C 337.753906 248.011719 337.566406 247.9375 337.410156 247.878906 C 336.933594 247.695312 336.355469 247.445312 336.191406 246.78125 C 336.039062 246.066406 336.527344 245.539062 336.847656 245.191406 C 337.425781 244.574219 337.871094 244.242188 338.167969 244.023438 C 338.273438 243.945312 338.398438 243.855469 338.429688 243.816406 C 338.707031 243.5 337.90625 241.726562 337.609375 241.058594 C 336.9375 239.558594 336.355469 238.257812 337.199219 237.441406 C 337.800781 236.851562 338.8125 236.90625 340.292969 237.601562 C 340.75 237.820312 341.125 238.082031 341.429688 238.320312 C 341.511719 238.035156 341.679688 237.753906 342.011719 237.570312 C 342.800781 237.136719 343.832031 237.640625 345.085938 239.0625 C 345.398438 239.414062 345.816406 239.890625 346.152344 240.625 C 346.308594 240.96875 346.40625 241.292969 346.488281 241.566406 C 346.652344 241.53125 346.835938 241.523438 347.042969 241.574219 C 347.644531 241.722656 348.054688 242.257812 348.230469 243.175781 C 348.4375 244.183594 348.460938 245.050781 348.484375 245.8125 C 348.507812 246.480469 348.527344 247.058594 348.667969 247.476562 C 348.9375 248.25 349.730469 248.691406 350.734375 249.191406 Z M 353.289062 250.429688 " fill-opacity="1" fill-rule="nonzero"/><path fill="#f2f2f2" d="M 351.421875 239.847656 L 351.019531 236.253906 L 351.203125 235.980469 C 352.054688 234.722656 352.488281 233.492188 352.492188 232.324219 C 352.492188 232.140625 352.484375 231.953125 352.476562 231.765625 C 352.441406 231.015625 352.398438 230.085938 352.882812 229 C 353.15625 228.394531 353.921875 226.992188 355.070312 227.164062 C 355.378906 227.207031 355.613281 227.351562 355.789062 227.515625 C 355.816406 227.476562 355.84375 227.433594 355.871094 227.390625 C 356.230469 226.84375 356.511719 226.609375 356.785156 226.382812 C 356.996094 226.210938 357.210938 226.03125 357.550781 225.609375 C 357.703125 225.421875 357.816406 225.257812 357.914062 225.121094 C 358.210938 224.707031 358.601562 224.214844 359.285156 224.222656 C 360.015625 224.257812 360.398438 224.863281 360.652344 225.261719 C 361.105469 225.976562 361.3125 226.492188 361.449219 226.832031 C 361.496094 226.957031 361.554688 227.097656 361.582031 227.144531 C 361.820312 227.488281 363.734375 227.164062 364.457031 227.046875 C 366.078125 226.777344 367.480469 226.542969 368.058594 227.566406 C 368.472656 228.296875 368.164062 229.265625 367.117188 230.519531 C 366.789062 230.910156 366.441406 231.207031 366.132812 231.4375 C 366.390625 231.59375 366.617188 231.824219 366.710938 232.195312 C 366.929688 233.066406 366.183594 233.9375 364.488281 234.789062 C 364.070312 235.003906 363.503906 235.289062 362.710938 235.425781 C 362.335938 235.488281 362 235.503906 361.710938 235.515625 C 361.707031 235.679688 361.667969 235.859375 361.566406 236.046875 C 361.269531 236.59375 360.652344 236.851562 359.71875 236.789062 C 358.691406 236.738281 357.847656 236.539062 357.101562 236.367188 C 356.449219 236.21875 355.890625 236.09375 355.449219 236.121094 C 354.632812 236.1875 354.003906 236.84375 353.265625 237.691406 Z M 351.421875 239.847656 " fill-opacity="1" fill-rule="nonzero"/><path fill="#f2f2f2" d="M 355.09375 309.578125 L 354.34375 309.105469 L 354.160156 308.234375 L 354.34375 309.105469 L 353.464844 309.203125 C 353.453125 309.125 353.40625 308.9375 353.332031 308.644531 C 352.941406 307.035156 351.742188 302.148438 350.746094 294.449219 C 350.046875 289.078125 349.652344 283.550781 349.570312 278.027344 C 349.492188 272.496094 349.753906 268.304688 349.960938 264.9375 C 350.121094 262.398438 350.3125 259.980469 350.503906 257.625 C 351.003906 251.332031 351.480469 245.386719 351.125 238.808594 C 351.046875 237.339844 350.882812 234.28125 349.097656 231.027344 C 348.0625 229.140625 346.636719 227.464844 344.859375 226.046875 L 345.964844 224.65625 C 347.925781 226.222656 349.503906 228.078125 350.65625 230.171875 C 352.636719 233.78125 352.8125 237.113281 352.898438 238.714844 C 353.257812 245.410156 352.777344 251.414062 352.269531 257.765625 C 352.082031 260.113281 351.890625 262.519531 351.734375 265.050781 C 351.527344 268.386719 351.265625 272.539062 351.347656 278 C 351.425781 283.457031 351.816406 288.914062 352.503906 294.222656 C 353.488281 301.824219 354.667969 306.636719 355.058594 308.21875 C 355.261719 309.066406 355.308594 309.242188 355.09375 309.578125 Z M 355.09375 309.578125 " fill-opacity="1" fill-rule="nonzero"/><path fill="#f2f2f2" d="M 341.601562 228.871094 C 341.53125 228.871094 341.457031 228.867188 341.382812 228.863281 C 339.871094 228.78125 338.472656 227.875 337.222656 226.171875 C 336.636719 225.371094 336.335938 224.457031 335.738281 222.632812 C 335.644531 222.355469 335.195312 220.929688 334.921875 218.964844 C 334.742188 217.683594 334.765625 217.148438 335.019531 216.675781 C 335.300781 216.148438 335.753906 215.78125 336.269531 215.53125 C 336.246094 215.363281 336.265625 215.1875 336.335938 215.007812 C 336.640625 214.265625 337.445312 214.363281 337.878906 214.410156 C 338.097656 214.4375 338.375 214.476562 338.671875 214.460938 C 339.136719 214.4375 339.386719 214.296875 339.765625 214.089844 C 340.128906 213.890625 340.582031 213.640625 341.25 213.503906 C 342.574219 213.230469 343.679688 213.605469 344.042969 213.726562 C 345.964844 214.367188 346.910156 215.859375 348.003906 217.589844 C 348.222656 217.9375 348.972656 219.199219 349.46875 220.929688 C 349.824219 222.179688 349.773438 222.734375 349.667969 223.148438 C 349.449219 223.996094 348.933594 224.480469 347.625 225.554688 C 346.257812 226.675781 345.570312 227.238281 344.980469 227.578125 C 343.609375 228.371094 342.746094 228.871094 341.601562 228.871094 Z M 341.601562 228.871094 " fill-opacity="1" fill-rule="nonzero"/><path fill="#ffb6b6" d="M 172.605469 167.40625 C 175.558594 168.183594 178.351562 167.292969 178.847656 165.414062 C 179.339844 163.535156 177.351562 161.378906 174.398438 160.601562 C 173.222656 160.273438 171.988281 160.234375 170.792969 160.480469 L 158.25 157.339844 L 156.902344 163.261719 L 169.410156 165.730469 C 170.328125 166.535156 171.421875 167.109375 172.605469 167.40625 Z M 172.605469 167.40625 " fill-opacity="1" fill-rule="nonzero"/><path fill="#2f2e41" d="M 103.667969 138.574219 C 103.667969 138.574219 101.117188 143.46875 104.648438 145.878906 C 108.179688 148.292969 137.585938 159.480469 137.585938 159.480469 L 166.789062 165.839844 L 167.84375 158.738281 L 141.253906 150.238281 L 119.082031 135.3125 Z M 103.667969 138.574219 " fill-opacity="1" fill-rule="nonzero"/><path fill="#ffb6b6" d="M 138.441406 296.5 L 143.390625 294.269531 L 135.59375 270.945312 L 128.285156 274.234375 Z M 138.441406 296.5 " fill-opacity="1" fill-rule="nonzero"/><path fill="#2f2e41" d="M 160.128906 298.679688 C 160.527344 299.507812 160.261719 300.457031 159.535156 300.804688 L 149.816406 305.460938 C 149.816406 305.460938 147.019531 302.070312 142.328125 302.28125 L 144.6875 307.914062 L 139.675781 310.316406 L 136.050781 301.175781 C 136.050781 301.175781 132.445312 297.082031 134.074219 293.328125 C 135.703125 289.574219 133.605469 290.988281 133.605469 290.988281 L 132.082031 284.988281 L 140.085938 282.25 L 144.253906 290.824219 L 152.011719 297.597656 L 158.683594 297.679688 C 159.277344 297.6875 159.84375 298.082031 160.128906 298.679688 Z M 160.128906 298.679688 " fill-opacity="1" fill-rule="nonzero"/><path fill="#ffb6b6" d="M 40.4375 284.457031 L 44.863281 287.605469 L 61.03125 269.082031 L 54.5 264.433594 Z M 40.4375 284.457031 " fill-opacity="1" fill-rule="nonzero"/><path fill="#2f2e41" d="M 49.523438 304.289062 C 49.011719 305.046875 48.054688 305.300781 47.390625 304.847656 L 38.460938 298.808594 C 38.460938 298.808594 39.972656 294.679688 37.417969 290.734375 L 33.753906 295.625 L 29.148438 292.507812 L 35.199219 284.757812 C 35.199219 284.757812 36.90625 279.574219 40.964844 279.082031 C 45.027344 278.589844 42.746094 277.5 42.746094 277.5 L 47.148438 273.148438 L 53.554688 278.675781 L 48.269531 286.609375 L 46.351562 296.730469 L 49.652344 302.53125 C 49.945312 303.046875 49.894531 303.738281 49.523438 304.289062 Z M 49.523438 304.289062 " fill-opacity="1" fill-rule="nonzero"/><path fill="#2f2e41" d="M 95.535156 106.863281 L 118.792969 106.863281 L 118.792969 138.824219 L 95.535156 138.824219 Z M 95.535156 106.863281 " fill-opacity="1" fill-rule="nonzero"/><path fill="#f9a826" d="M 113.570312 125.128906 L 100.941406 121.375 L 98.554688 127.863281 L 98.210938 167.480469 C 98.210938 167.480469 116.300781 163.378906 120.394531 170.210938 L 121.757812 157.917969 C 121.757812 157.917969 126.195312 151.769531 122.441406 143.914062 C 118.6875 136.058594 115.148438 132.515625 115.148438 132.515625 L 112.203125 130.9375 Z M 113.570312 125.128906 " fill-opacity="1" fill-rule="nonzero"/><path fill="#ffb6b6" d="M 99.066406 161.503906 L 97.359375 178.917969 L 119.882812 183.699219 C 119.882812 183.699219 118.175781 168.675781 120.222656 165.257812 Z M 99.066406 161.503906 " fill-opacity="1" fill-rule="nonzero"/><path fill="#2f2e41" d="M 121.246094 183.359375 C 121.246094 183.359375 106.914062 172.773438 94.628906 176.871094 C 94.628906 176.871094 80.125 185.921875 87.632812 201.628906 L 76.199219 228.78125 L 50.605469 264.640625 L 57.773438 273.179688 L 91.558594 238.003906 L 102.476562 222.976562 L 130.121094 281.714844 L 138.652344 277.617188 L 128.074219 232.539062 L 121.757812 201.289062 Z M 121.246094 183.359375 " fill-opacity="1" fill-rule="nonzero"/><path fill="#2f2e41" d="M 87.804688 203.507812 L 70.742188 198.042969 L 87.121094 152.621094 L 85.414062 128.375 L 99.867188 124.296875 L 107.9375 160.136719 Z M 87.804688 203.507812 " fill-opacity="1" fill-rule="nonzero"/><path fill="#2f2e41" d="M 114.207031 133.460938 L 111.625 130.878906 L 112.777344 128.5 C 112.777344 128.5 120.222656 136.230469 121.589844 138.277344 C 122.953125 140.328125 135.703125 191.792969 135.703125 191.792969 L 116.46875 199.753906 L 120.222656 159.339844 L 121.613281 150.253906 C 121.820312 148.90625 121.589844 147.535156 120.957031 146.328125 Z M 114.207031 133.460938 " fill-opacity="1" fill-rule="nonzero"/><path fill="#ffb6b6" d="M 119.246094 110.574219 C 119.246094 111.320312 119.171875 112.054688 119.027344 112.785156 C 118.882812 113.515625 118.667969 114.222656 118.382812 114.910156 C 118.101562 115.597656 117.75 116.25 117.339844 116.867188 C 116.925781 117.484375 116.457031 118.058594 115.929688 118.582031 C 115.40625 119.109375 114.835938 119.578125 114.214844 119.992188 C 113.597656 120.40625 112.945312 120.753906 112.261719 121.039062 C 111.574219 121.324219 110.867188 121.539062 110.136719 121.683594 C 109.410156 121.828125 108.671875 121.898438 107.929688 121.898438 C 107.1875 121.898438 106.449219 121.828125 105.722656 121.683594 C 104.992188 121.539062 104.285156 121.324219 103.597656 121.039062 C 102.914062 120.753906 102.261719 120.40625 101.644531 119.992188 C 101.023438 119.578125 100.453125 119.109375 99.929688 118.582031 C 99.402344 118.058594 98.933594 117.484375 98.519531 116.867188 C 98.109375 116.25 97.757812 115.597656 97.476562 114.910156 C 97.191406 114.222656 96.976562 113.515625 96.832031 112.785156 C 96.6875 112.054688 96.613281 111.320312 96.613281 110.574219 C 96.613281 109.832031 96.6875 109.09375 96.832031 108.367188 C 96.976562 107.636719 97.191406 106.929688 97.476562 106.242188 C 97.757812 105.554688 98.109375 104.902344 98.519531 104.285156 C 98.933594 103.664062 99.402344 103.09375 99.929688 102.566406 C 100.453125 102.042969 101.023438 101.574219 101.644531 101.160156 C 102.261719 100.746094 102.914062 100.398438 103.597656 100.113281 C 104.285156 99.828125 104.992188 99.613281 105.722656 99.46875 C 106.449219 99.324219 107.1875 99.25 107.929688 99.25 C 108.671875 99.25 109.410156 99.324219 110.136719 99.46875 C 110.867188 99.613281 111.574219 99.828125 112.261719 100.113281 C 112.945312 100.398438 113.597656 100.746094 114.214844 101.160156 C 114.835938 101.574219 115.40625 102.042969 115.929688 102.566406 C 116.457031 103.09375 116.925781 103.664062 117.339844 104.285156 C 117.75 104.902344 118.101562 105.554688 118.382812 106.242188 C 118.667969 106.929688 118.882812 107.636719 119.027344 108.367188 C 119.171875 109.09375 119.246094 109.832031 119.246094 110.574219 Z M 119.246094 110.574219 " fill-opacity="1" fill-rule="nonzero"/><path fill="#2f2e41" d="M 114.96875 105.945312 C 111.085938 103.355469 104.136719 113.734375 102.011719 107.355469 C 101.679688 106.359375 100.902344 110.757812 100.617188 112.300781 C 100.253906 114.253906 101.167969 115.816406 100.617188 116.167969 C 99.988281 116.5625 98.457031 114.796875 98.132812 115.0625 C 97.816406 115.320312 98.832031 117.371094 100.617188 119.757812 C 102.980469 122.921875 104.464844 123.695312 106.410156 125.832031 C 108.222656 127.824219 111.578125 131.511719 111.101562 134.671875 C 110.210938 140.617188 95.707031 145.210938 91.230469 140.75 C 90.160156 139.679688 89.949219 137.257812 89.574219 132.460938 C 89.015625 125.324219 89.4375 119.964844 89.574219 118.375 C 90.144531 111.753906 90.429688 108.441406 91.78125 105.671875 C 92.648438 103.898438 95.558594 97.941406 101.996094 96.003906 C 108.910156 93.921875 117.140625 97.3125 119.382812 102.355469 C 120.03125 103.8125 119.402344 103.65625 120.210938 108.433594 C 121.171875 114.082031 121.789062 117.476562 124.351562 119.480469 C 126.703125 121.324219 128.519531 120.292969 129.320312 121.691406 C 131.394531 125.3125 121.773438 136.78125 117.726562 135.222656 C 115.289062 134.289062 115.074219 128.699219 115.242188 126.109375 C 115.605469 120.53125 118.367188 119.351562 118.28125 114.234375 C 118.257812 112.878906 118.175781 108.085938 114.96875 105.945312 Z M 114.96875 105.945312 " fill-opacity="1" fill-rule="nonzero"/><path fill="#ffb6b6" d="M 65.667969 200.578125 C 65.1875 203.59375 66.351562 206.289062 68.269531 206.59375 C 70.1875 206.898438 72.132812 204.703125 72.613281 201.6875 C 72.820312 200.484375 72.738281 199.25 72.371094 198.085938 L 74.246094 185.28125 L 68.222656 184.527344 L 67.015625 197.230469 C 66.304688 198.222656 65.84375 199.371094 65.667969 200.578125 Z M 65.667969 200.578125 " fill-opacity="1" fill-rule="nonzero"/><path fill="#2f2e41" d="M 87.460938 129.058594 C 87.460938 129.058594 82.34375 127.007812 80.296875 130.765625 C 78.25 134.523438 70.058594 164.917969 70.058594 164.917969 L 66.644531 194.628906 L 73.8125 194.972656 L 79.613281 167.648438 L 92.238281 144.085938 Z M 87.460938 129.058594 " fill-opacity="1" fill-rule="nonzero"/><g clip-path="url(#d03ec8fce7)"><path fill="#e6e6e6" d="M 413.113281 310.1875 C 413.113281 310.515625 412.847656 310.78125 412.519531 310.78125 L 0.164062 310.78125 L 0.164062 309.589844 L 412.519531 309.589844 C 412.847656 309.589844 413.113281 309.855469 413.113281 310.1875 Z M 413.113281 310.1875 " fill-opacity="1" fill-rule="nonzero"/></g></svg>